<svg width="60" height="60" viewBox="0 0 60 60" fill="none" xmlns="http://www.w3.org/2000/svg">
<g clip-path="url(#clip0_439_1485)">
<path d="M30.0126 -0.0595703H30.0616C46.6138 -0.0595703 60.0371 13.0161 60.0371 29.1396V30.7651C60.0371 46.8886 46.6138 59.9643 30.0616 59.9643H30.0126C13.4604 59.9643 0.0371094 46.8886 0.0371094 30.7651V29.1396C0.0371094 13.0161 13.4604 -0.0595703 30.0126 -0.0595703Z" fill="#232323"/>
<path d="M42.4523 22.661C42.3541 22.7686 42.2314 22.8523 42.0965 22.9001C41.9615 22.9598 41.8143 22.9838 41.667 22.9838H13.8756C12.894 22.9838 12.391 21.7885 13.0781 21.0714L17.6425 16.3503C17.7407 16.2427 17.8633 16.1591 18.0106 16.0993C18.1456 16.0395 18.2928 16.0156 18.44 16.0156H46.3419C47.3357 16.0156 47.8265 17.2228 47.1272 17.9399L42.4523 22.661ZM42.4523 43.7686C42.2437 43.9718 41.9615 44.0913 41.667 44.0913H13.8756C12.894 44.0913 12.391 42.92 13.0781 42.2268L17.6425 37.6132C17.7407 37.5057 17.8756 37.422 18.0106 37.3742C18.1456 37.3144 18.2928 37.2905 18.44 37.2905H46.3419C47.3357 37.2905 47.8265 38.4738 47.1272 39.167L42.4523 43.7686ZM42.4523 26.9758C42.2437 26.7726 41.9615 26.6531 41.667 26.6531H13.8756C12.894 26.6531 12.391 27.8244 13.0781 28.5176L17.6425 33.1312C17.7407 33.2387 17.8756 33.3224 18.0106 33.3702C18.1456 33.43 18.2928 33.4539 18.44 33.4539H46.3419C47.3357 33.4539 47.8265 32.2706 47.1272 31.5774L42.4523 26.9758Z" fill="url(#paint0_linear_439_1485)"/>
</g>
<defs>
<linearGradient id="paint0_linear_439_1485" x1="14.8823" y1="44.4417" x2="44.4667" y2="14.8731" gradientUnits="userSpaceOnUse">
<stop stop-color="#CF41E8"/>
<stop offset="1" stop-color="#10F2B0"/>
</linearGradient>
<clipPath id="clip0_439_1485">
<rect width="60" height="60" fill="white"/>
</clipPath>
</defs>
</svg>
