<svg width="31" height="30" viewBox="0 0 31 30" fill="none" xmlns="http://www.w3.org/2000/svg">
<path fill-rule="evenodd" clip-rule="evenodd" d="M2.04836 13.0925C9.29463 9.8005 14.1186 7.61308 16.5409 6.55185C23.4352 3.54144 24.8845 3.02166 25.8161 3C26.0232 3 26.4786 3.04332 26.7892 3.30321C27.0376 3.51978 27.0997 3.80133 27.1411 4.01791C27.1826 4.23449 27.224 4.6893 27.1826 5.03582C26.8099 9.15077 25.195 19.1349 24.3669 23.7264C24.0149 25.6756 23.3317 26.3253 22.6692 26.3903C21.2199 26.5202 20.1226 25.394 18.7355 24.4411C16.5409 22.9467 15.3194 22.0154 13.1869 20.5427C10.7232 18.8534 12.3174 17.9221 13.7252 16.4061C14.0979 16.0162 20.4539 9.9521 20.5781 9.41066C20.5988 9.34569 20.5988 9.0858 20.4539 8.95585C20.309 8.82591 20.1019 8.86922 19.9363 8.91254C19.7085 8.95585 16.2303 11.3815 9.46026 16.1678C8.46648 16.8825 7.57623 17.2291 6.76879 17.2074C5.87853 17.1858 4.18083 16.6876 2.89721 16.2545C1.34444 15.7347 0.102221 15.4531 0.205739 14.5435C0.26785 14.0671 0.888959 13.5906 2.04836 13.0925Z" fill="#00000A"/>
</svg>
