<svg width="60" height="60" viewBox="0 0 60 60" fill="none" xmlns="http://www.w3.org/2000/svg">
<g clip-path="url(#clip0_439_1482)">
<path d="M30 60C46.5685 60 60 46.5685 60 30C60 13.4315 46.5685 0 30 0C13.4315 0 0 13.4315 0 30C0 46.5685 13.4315 60 30 60Z" fill="#0088CC"/>
<path fill-rule="evenodd" clip-rule="evenodd" d="M21.6428 19.8213H38.4643C39.1071 19.8213 39.6428 19.9284 40.2857 20.2499C41.0357 20.5713 41.4643 21.107 41.6785 21.5356C41.6785 21.5356 41.6785 21.6427 41.7857 21.6427C42.1071 22.1784 42.3214 22.8213 42.3214 23.5713C42.3214 24.2141 42.2143 24.857 41.7857 25.4999L31.1785 43.7141C30.9643 44.1427 30.5357 44.357 30 44.357C29.5714 44.357 29.1428 44.1427 28.8214 43.7141L18.4285 25.4999C18.2143 25.0713 17.7857 24.5356 17.7857 23.6784C17.6785 22.9284 17.8928 22.2856 18.2143 21.6427C18.5357 20.9999 19.0714 20.4641 19.8214 20.2499C20.4643 19.8213 21.2143 19.8213 21.6428 19.8213ZM28.7143 22.3927H21.6428C21.2143 22.3927 21 22.3927 20.8928 22.4999C20.6785 22.607 20.5714 22.7141 20.4643 22.9284C20.3571 23.0356 20.3571 23.2499 20.3571 23.4641C20.3571 23.5713 20.4643 23.6784 20.6785 24.107L28.7143 38.0356V22.3927ZM31.2857 22.3927V38.1427L39.4285 24.107C39.5357 23.8927 39.5357 23.6784 39.5357 23.4641C39.5357 23.2499 39.5357 23.0356 39.4285 22.9284C39.3214 22.8213 39.3214 22.7141 39.2143 22.7141L39.1071 22.607C38.8928 22.4999 38.6785 22.4999 38.3571 22.4999H31.2857V22.3927Z" fill="#F6F4EB"/>
</g>
<defs>
<clipPath id="clip0_439_1482">
<rect width="60" height="60" fill="white"/>
</clipPath>
</defs>
</svg>
