<svg width="31" height="30" viewBox="0 0 31 30" fill="none" xmlns="http://www.w3.org/2000/svg">
<g clip-path="url(#clip0_410_1494)">
<path d="M29.2144 8.12324C28.8918 6.89323 27.9444 5.92662 26.7389 5.59737C24.5563 5 15.7998 5 15.7998 5C15.7998 5 7.04348 5 4.86072 5.59737C3.65526 5.92662 2.70794 6.89323 2.38525 8.12324C1.7998 10.3504 1.7998 15 1.7998 15C1.7998 15 1.7998 19.6496 2.38525 21.8768C2.70794 23.1068 3.65526 24.0734 4.86072 24.4026C7.04348 25 15.7998 25 15.7998 25C15.7998 25 24.5563 25 26.7389 24.4026C27.9444 24.0734 28.8918 23.1068 29.2144 21.8768C29.7999 19.6496 29.7999 15 29.7999 15C29.7999 15 29.7976 10.3504 29.2144 8.12324Z" fill="#00000A"/>
<path d="M12.9971 19.2854L20.2714 15.0004L12.9971 10.7153V19.2854Z" fill="#BCFD4C"/>
</g>
<defs>
<clipPath id="clip0_410_1494">
<rect width="28" height="20" fill="white" transform="translate(1.7998 5)"/>
</clipPath>
</defs>
</svg>
